G75*
%MOIN*%
%OFA0B0*%
%FSLAX24Y24*%
%IPPOS*%
%LPD*%
%AMOC8*
5,1,8,0,0,1.08239X$1,22.5*
%
%ADD10C,0.1290*%
%ADD11C,0.2402*%
%ADD12C,0.0690*%
D10*
X002260Y014610D03*
X014260Y014610D03*
X026260Y014610D03*
X022260Y029250D03*
X010260Y029250D03*
X034260Y029250D03*
D11*
X034010Y024930D03*
X030260Y024930D03*
X026510Y024930D03*
X022010Y024930D03*
X018260Y024930D03*
X014510Y024930D03*
X010010Y024930D03*
X006260Y024930D03*
X002510Y024930D03*
X002510Y019430D03*
X006260Y019430D03*
X010010Y019430D03*
X014510Y019430D03*
X018260Y019430D03*
X022010Y019430D03*
X026510Y019430D03*
X030260Y019430D03*
X034010Y019430D03*
D12*
X002510Y002871D03*
X002510Y004052D03*
X002510Y007399D03*
X002510Y008371D03*
X002510Y009552D03*
X002510Y012899D03*
X006260Y012899D03*
X006260Y009552D03*
X006260Y008371D03*
X006260Y007399D03*
X006260Y004052D03*
X006260Y002871D03*
X010010Y002871D03*
X010010Y004052D03*
X010010Y007399D03*
X010010Y008371D03*
X010010Y009552D03*
X010010Y012899D03*
X014510Y012899D03*
X014510Y009552D03*
X014510Y008371D03*
X014510Y007399D03*
X014510Y004052D03*
X014510Y002871D03*
X018260Y002871D03*
X018260Y004052D03*
X018260Y007399D03*
X018260Y008371D03*
X018260Y009552D03*
X018260Y012899D03*
X022010Y012899D03*
X022010Y009552D03*
X022010Y008371D03*
X022010Y007399D03*
X022010Y004052D03*
X022010Y002871D03*
X026510Y002871D03*
X026510Y004052D03*
X026510Y007399D03*
X026510Y008371D03*
X026510Y009552D03*
X026510Y012899D03*
X030260Y012899D03*
X030260Y009552D03*
X030260Y008371D03*
X030260Y007399D03*
X030260Y004052D03*
X030260Y002871D03*
X034010Y002871D03*
X034010Y004052D03*
X034010Y007399D03*
X034010Y008371D03*
X034010Y009552D03*
X034010Y012899D03*
M02*
