G75*
%MOIN*%
%OFA0B0*%
%FSLAX24Y24*%
%IPPOS*%
%LPD*%
%AMOC8*
5,1,8,0,0,1.08239X$1,22.5*
%
%ADD10C,0.0000*%
%ADD11C,0.0100*%
D10*
X001635Y014610D02*
X001637Y014660D01*
X001643Y014709D01*
X001653Y014758D01*
X001666Y014805D01*
X001684Y014852D01*
X001705Y014897D01*
X001729Y014940D01*
X001757Y014981D01*
X001788Y015020D01*
X001822Y015056D01*
X001859Y015090D01*
X001899Y015120D01*
X001940Y015147D01*
X001984Y015171D01*
X002029Y015191D01*
X002076Y015207D01*
X002124Y015220D01*
X002173Y015229D01*
X002223Y015234D01*
X002272Y015235D01*
X002322Y015232D01*
X002371Y015225D01*
X002420Y015214D01*
X002467Y015200D01*
X002513Y015181D01*
X002558Y015159D01*
X002601Y015134D01*
X002641Y015105D01*
X002679Y015073D01*
X002715Y015039D01*
X002748Y015001D01*
X002777Y014961D01*
X002803Y014919D01*
X002826Y014875D01*
X002845Y014829D01*
X002861Y014782D01*
X002873Y014733D01*
X002881Y014684D01*
X002885Y014635D01*
X002885Y014585D01*
X002881Y014536D01*
X002873Y014487D01*
X002861Y014438D01*
X002845Y014391D01*
X002826Y014345D01*
X002803Y014301D01*
X002777Y014259D01*
X002748Y014219D01*
X002715Y014181D01*
X002679Y014147D01*
X002641Y014115D01*
X002601Y014086D01*
X002558Y014061D01*
X002513Y014039D01*
X002467Y014020D01*
X002420Y014006D01*
X002371Y013995D01*
X002322Y013988D01*
X002272Y013985D01*
X002223Y013986D01*
X002173Y013991D01*
X002124Y014000D01*
X002076Y014013D01*
X002029Y014029D01*
X001984Y014049D01*
X001940Y014073D01*
X001899Y014100D01*
X001859Y014130D01*
X001822Y014164D01*
X001788Y014200D01*
X001757Y014239D01*
X001729Y014280D01*
X001705Y014323D01*
X001684Y014368D01*
X001666Y014415D01*
X001653Y014462D01*
X001643Y014511D01*
X001637Y014560D01*
X001635Y014610D01*
X001329Y019430D02*
X001331Y019499D01*
X001337Y019567D01*
X001347Y019635D01*
X001361Y019702D01*
X001379Y019769D01*
X001400Y019834D01*
X001426Y019898D01*
X001455Y019960D01*
X001487Y020020D01*
X001523Y020079D01*
X001563Y020135D01*
X001605Y020189D01*
X001651Y020240D01*
X001700Y020289D01*
X001751Y020335D01*
X001805Y020377D01*
X001861Y020417D01*
X001919Y020453D01*
X001980Y020485D01*
X002042Y020514D01*
X002106Y020540D01*
X002171Y020561D01*
X002238Y020579D01*
X002305Y020593D01*
X002373Y020603D01*
X002441Y020609D01*
X002510Y020611D01*
X002579Y020609D01*
X002647Y020603D01*
X002715Y020593D01*
X002782Y020579D01*
X002849Y020561D01*
X002914Y020540D01*
X002978Y020514D01*
X003040Y020485D01*
X003100Y020453D01*
X003159Y020417D01*
X003215Y020377D01*
X003269Y020335D01*
X003320Y020289D01*
X003369Y020240D01*
X003415Y020189D01*
X003457Y020135D01*
X003497Y020079D01*
X003533Y020020D01*
X003565Y019960D01*
X003594Y019898D01*
X003620Y019834D01*
X003641Y019769D01*
X003659Y019702D01*
X003673Y019635D01*
X003683Y019567D01*
X003689Y019499D01*
X003691Y019430D01*
X003689Y019361D01*
X003683Y019293D01*
X003673Y019225D01*
X003659Y019158D01*
X003641Y019091D01*
X003620Y019026D01*
X003594Y018962D01*
X003565Y018900D01*
X003533Y018839D01*
X003497Y018781D01*
X003457Y018725D01*
X003415Y018671D01*
X003369Y018620D01*
X003320Y018571D01*
X003269Y018525D01*
X003215Y018483D01*
X003159Y018443D01*
X003101Y018407D01*
X003040Y018375D01*
X002978Y018346D01*
X002914Y018320D01*
X002849Y018299D01*
X002782Y018281D01*
X002715Y018267D01*
X002647Y018257D01*
X002579Y018251D01*
X002510Y018249D01*
X002441Y018251D01*
X002373Y018257D01*
X002305Y018267D01*
X002238Y018281D01*
X002171Y018299D01*
X002106Y018320D01*
X002042Y018346D01*
X001980Y018375D01*
X001919Y018407D01*
X001861Y018443D01*
X001805Y018483D01*
X001751Y018525D01*
X001700Y018571D01*
X001651Y018620D01*
X001605Y018671D01*
X001563Y018725D01*
X001523Y018781D01*
X001487Y018839D01*
X001455Y018900D01*
X001426Y018962D01*
X001400Y019026D01*
X001379Y019091D01*
X001361Y019158D01*
X001347Y019225D01*
X001337Y019293D01*
X001331Y019361D01*
X001329Y019430D01*
X005079Y019430D02*
X005081Y019499D01*
X005087Y019567D01*
X005097Y019635D01*
X005111Y019702D01*
X005129Y019769D01*
X005150Y019834D01*
X005176Y019898D01*
X005205Y019960D01*
X005237Y020020D01*
X005273Y020079D01*
X005313Y020135D01*
X005355Y020189D01*
X005401Y020240D01*
X005450Y020289D01*
X005501Y020335D01*
X005555Y020377D01*
X005611Y020417D01*
X005669Y020453D01*
X005730Y020485D01*
X005792Y020514D01*
X005856Y020540D01*
X005921Y020561D01*
X005988Y020579D01*
X006055Y020593D01*
X006123Y020603D01*
X006191Y020609D01*
X006260Y020611D01*
X006329Y020609D01*
X006397Y020603D01*
X006465Y020593D01*
X006532Y020579D01*
X006599Y020561D01*
X006664Y020540D01*
X006728Y020514D01*
X006790Y020485D01*
X006850Y020453D01*
X006909Y020417D01*
X006965Y020377D01*
X007019Y020335D01*
X007070Y020289D01*
X007119Y020240D01*
X007165Y020189D01*
X007207Y020135D01*
X007247Y020079D01*
X007283Y020020D01*
X007315Y019960D01*
X007344Y019898D01*
X007370Y019834D01*
X007391Y019769D01*
X007409Y019702D01*
X007423Y019635D01*
X007433Y019567D01*
X007439Y019499D01*
X007441Y019430D01*
X007439Y019361D01*
X007433Y019293D01*
X007423Y019225D01*
X007409Y019158D01*
X007391Y019091D01*
X007370Y019026D01*
X007344Y018962D01*
X007315Y018900D01*
X007283Y018839D01*
X007247Y018781D01*
X007207Y018725D01*
X007165Y018671D01*
X007119Y018620D01*
X007070Y018571D01*
X007019Y018525D01*
X006965Y018483D01*
X006909Y018443D01*
X006851Y018407D01*
X006790Y018375D01*
X006728Y018346D01*
X006664Y018320D01*
X006599Y018299D01*
X006532Y018281D01*
X006465Y018267D01*
X006397Y018257D01*
X006329Y018251D01*
X006260Y018249D01*
X006191Y018251D01*
X006123Y018257D01*
X006055Y018267D01*
X005988Y018281D01*
X005921Y018299D01*
X005856Y018320D01*
X005792Y018346D01*
X005730Y018375D01*
X005669Y018407D01*
X005611Y018443D01*
X005555Y018483D01*
X005501Y018525D01*
X005450Y018571D01*
X005401Y018620D01*
X005355Y018671D01*
X005313Y018725D01*
X005273Y018781D01*
X005237Y018839D01*
X005205Y018900D01*
X005176Y018962D01*
X005150Y019026D01*
X005129Y019091D01*
X005111Y019158D01*
X005097Y019225D01*
X005087Y019293D01*
X005081Y019361D01*
X005079Y019430D01*
X008829Y019430D02*
X008831Y019499D01*
X008837Y019567D01*
X008847Y019635D01*
X008861Y019702D01*
X008879Y019769D01*
X008900Y019834D01*
X008926Y019898D01*
X008955Y019960D01*
X008987Y020020D01*
X009023Y020079D01*
X009063Y020135D01*
X009105Y020189D01*
X009151Y020240D01*
X009200Y020289D01*
X009251Y020335D01*
X009305Y020377D01*
X009361Y020417D01*
X009419Y020453D01*
X009480Y020485D01*
X009542Y020514D01*
X009606Y020540D01*
X009671Y020561D01*
X009738Y020579D01*
X009805Y020593D01*
X009873Y020603D01*
X009941Y020609D01*
X010010Y020611D01*
X010079Y020609D01*
X010147Y020603D01*
X010215Y020593D01*
X010282Y020579D01*
X010349Y020561D01*
X010414Y020540D01*
X010478Y020514D01*
X010540Y020485D01*
X010600Y020453D01*
X010659Y020417D01*
X010715Y020377D01*
X010769Y020335D01*
X010820Y020289D01*
X010869Y020240D01*
X010915Y020189D01*
X010957Y020135D01*
X010997Y020079D01*
X011033Y020020D01*
X011065Y019960D01*
X011094Y019898D01*
X011120Y019834D01*
X011141Y019769D01*
X011159Y019702D01*
X011173Y019635D01*
X011183Y019567D01*
X011189Y019499D01*
X011191Y019430D01*
X011189Y019361D01*
X011183Y019293D01*
X011173Y019225D01*
X011159Y019158D01*
X011141Y019091D01*
X011120Y019026D01*
X011094Y018962D01*
X011065Y018900D01*
X011033Y018839D01*
X010997Y018781D01*
X010957Y018725D01*
X010915Y018671D01*
X010869Y018620D01*
X010820Y018571D01*
X010769Y018525D01*
X010715Y018483D01*
X010659Y018443D01*
X010601Y018407D01*
X010540Y018375D01*
X010478Y018346D01*
X010414Y018320D01*
X010349Y018299D01*
X010282Y018281D01*
X010215Y018267D01*
X010147Y018257D01*
X010079Y018251D01*
X010010Y018249D01*
X009941Y018251D01*
X009873Y018257D01*
X009805Y018267D01*
X009738Y018281D01*
X009671Y018299D01*
X009606Y018320D01*
X009542Y018346D01*
X009480Y018375D01*
X009419Y018407D01*
X009361Y018443D01*
X009305Y018483D01*
X009251Y018525D01*
X009200Y018571D01*
X009151Y018620D01*
X009105Y018671D01*
X009063Y018725D01*
X009023Y018781D01*
X008987Y018839D01*
X008955Y018900D01*
X008926Y018962D01*
X008900Y019026D01*
X008879Y019091D01*
X008861Y019158D01*
X008847Y019225D01*
X008837Y019293D01*
X008831Y019361D01*
X008829Y019430D01*
X013329Y019430D02*
X013331Y019499D01*
X013337Y019567D01*
X013347Y019635D01*
X013361Y019702D01*
X013379Y019769D01*
X013400Y019834D01*
X013426Y019898D01*
X013455Y019960D01*
X013487Y020020D01*
X013523Y020079D01*
X013563Y020135D01*
X013605Y020189D01*
X013651Y020240D01*
X013700Y020289D01*
X013751Y020335D01*
X013805Y020377D01*
X013861Y020417D01*
X013919Y020453D01*
X013980Y020485D01*
X014042Y020514D01*
X014106Y020540D01*
X014171Y020561D01*
X014238Y020579D01*
X014305Y020593D01*
X014373Y020603D01*
X014441Y020609D01*
X014510Y020611D01*
X014579Y020609D01*
X014647Y020603D01*
X014715Y020593D01*
X014782Y020579D01*
X014849Y020561D01*
X014914Y020540D01*
X014978Y020514D01*
X015040Y020485D01*
X015100Y020453D01*
X015159Y020417D01*
X015215Y020377D01*
X015269Y020335D01*
X015320Y020289D01*
X015369Y020240D01*
X015415Y020189D01*
X015457Y020135D01*
X015497Y020079D01*
X015533Y020020D01*
X015565Y019960D01*
X015594Y019898D01*
X015620Y019834D01*
X015641Y019769D01*
X015659Y019702D01*
X015673Y019635D01*
X015683Y019567D01*
X015689Y019499D01*
X015691Y019430D01*
X015689Y019361D01*
X015683Y019293D01*
X015673Y019225D01*
X015659Y019158D01*
X015641Y019091D01*
X015620Y019026D01*
X015594Y018962D01*
X015565Y018900D01*
X015533Y018839D01*
X015497Y018781D01*
X015457Y018725D01*
X015415Y018671D01*
X015369Y018620D01*
X015320Y018571D01*
X015269Y018525D01*
X015215Y018483D01*
X015159Y018443D01*
X015101Y018407D01*
X015040Y018375D01*
X014978Y018346D01*
X014914Y018320D01*
X014849Y018299D01*
X014782Y018281D01*
X014715Y018267D01*
X014647Y018257D01*
X014579Y018251D01*
X014510Y018249D01*
X014441Y018251D01*
X014373Y018257D01*
X014305Y018267D01*
X014238Y018281D01*
X014171Y018299D01*
X014106Y018320D01*
X014042Y018346D01*
X013980Y018375D01*
X013919Y018407D01*
X013861Y018443D01*
X013805Y018483D01*
X013751Y018525D01*
X013700Y018571D01*
X013651Y018620D01*
X013605Y018671D01*
X013563Y018725D01*
X013523Y018781D01*
X013487Y018839D01*
X013455Y018900D01*
X013426Y018962D01*
X013400Y019026D01*
X013379Y019091D01*
X013361Y019158D01*
X013347Y019225D01*
X013337Y019293D01*
X013331Y019361D01*
X013329Y019430D01*
X017079Y019430D02*
X017081Y019499D01*
X017087Y019567D01*
X017097Y019635D01*
X017111Y019702D01*
X017129Y019769D01*
X017150Y019834D01*
X017176Y019898D01*
X017205Y019960D01*
X017237Y020020D01*
X017273Y020079D01*
X017313Y020135D01*
X017355Y020189D01*
X017401Y020240D01*
X017450Y020289D01*
X017501Y020335D01*
X017555Y020377D01*
X017611Y020417D01*
X017669Y020453D01*
X017730Y020485D01*
X017792Y020514D01*
X017856Y020540D01*
X017921Y020561D01*
X017988Y020579D01*
X018055Y020593D01*
X018123Y020603D01*
X018191Y020609D01*
X018260Y020611D01*
X018329Y020609D01*
X018397Y020603D01*
X018465Y020593D01*
X018532Y020579D01*
X018599Y020561D01*
X018664Y020540D01*
X018728Y020514D01*
X018790Y020485D01*
X018850Y020453D01*
X018909Y020417D01*
X018965Y020377D01*
X019019Y020335D01*
X019070Y020289D01*
X019119Y020240D01*
X019165Y020189D01*
X019207Y020135D01*
X019247Y020079D01*
X019283Y020020D01*
X019315Y019960D01*
X019344Y019898D01*
X019370Y019834D01*
X019391Y019769D01*
X019409Y019702D01*
X019423Y019635D01*
X019433Y019567D01*
X019439Y019499D01*
X019441Y019430D01*
X019439Y019361D01*
X019433Y019293D01*
X019423Y019225D01*
X019409Y019158D01*
X019391Y019091D01*
X019370Y019026D01*
X019344Y018962D01*
X019315Y018900D01*
X019283Y018839D01*
X019247Y018781D01*
X019207Y018725D01*
X019165Y018671D01*
X019119Y018620D01*
X019070Y018571D01*
X019019Y018525D01*
X018965Y018483D01*
X018909Y018443D01*
X018851Y018407D01*
X018790Y018375D01*
X018728Y018346D01*
X018664Y018320D01*
X018599Y018299D01*
X018532Y018281D01*
X018465Y018267D01*
X018397Y018257D01*
X018329Y018251D01*
X018260Y018249D01*
X018191Y018251D01*
X018123Y018257D01*
X018055Y018267D01*
X017988Y018281D01*
X017921Y018299D01*
X017856Y018320D01*
X017792Y018346D01*
X017730Y018375D01*
X017669Y018407D01*
X017611Y018443D01*
X017555Y018483D01*
X017501Y018525D01*
X017450Y018571D01*
X017401Y018620D01*
X017355Y018671D01*
X017313Y018725D01*
X017273Y018781D01*
X017237Y018839D01*
X017205Y018900D01*
X017176Y018962D01*
X017150Y019026D01*
X017129Y019091D01*
X017111Y019158D01*
X017097Y019225D01*
X017087Y019293D01*
X017081Y019361D01*
X017079Y019430D01*
X020829Y019430D02*
X020831Y019499D01*
X020837Y019567D01*
X020847Y019635D01*
X020861Y019702D01*
X020879Y019769D01*
X020900Y019834D01*
X020926Y019898D01*
X020955Y019960D01*
X020987Y020020D01*
X021023Y020079D01*
X021063Y020135D01*
X021105Y020189D01*
X021151Y020240D01*
X021200Y020289D01*
X021251Y020335D01*
X021305Y020377D01*
X021361Y020417D01*
X021419Y020453D01*
X021480Y020485D01*
X021542Y020514D01*
X021606Y020540D01*
X021671Y020561D01*
X021738Y020579D01*
X021805Y020593D01*
X021873Y020603D01*
X021941Y020609D01*
X022010Y020611D01*
X022079Y020609D01*
X022147Y020603D01*
X022215Y020593D01*
X022282Y020579D01*
X022349Y020561D01*
X022414Y020540D01*
X022478Y020514D01*
X022540Y020485D01*
X022600Y020453D01*
X022659Y020417D01*
X022715Y020377D01*
X022769Y020335D01*
X022820Y020289D01*
X022869Y020240D01*
X022915Y020189D01*
X022957Y020135D01*
X022997Y020079D01*
X023033Y020020D01*
X023065Y019960D01*
X023094Y019898D01*
X023120Y019834D01*
X023141Y019769D01*
X023159Y019702D01*
X023173Y019635D01*
X023183Y019567D01*
X023189Y019499D01*
X023191Y019430D01*
X023189Y019361D01*
X023183Y019293D01*
X023173Y019225D01*
X023159Y019158D01*
X023141Y019091D01*
X023120Y019026D01*
X023094Y018962D01*
X023065Y018900D01*
X023033Y018839D01*
X022997Y018781D01*
X022957Y018725D01*
X022915Y018671D01*
X022869Y018620D01*
X022820Y018571D01*
X022769Y018525D01*
X022715Y018483D01*
X022659Y018443D01*
X022601Y018407D01*
X022540Y018375D01*
X022478Y018346D01*
X022414Y018320D01*
X022349Y018299D01*
X022282Y018281D01*
X022215Y018267D01*
X022147Y018257D01*
X022079Y018251D01*
X022010Y018249D01*
X021941Y018251D01*
X021873Y018257D01*
X021805Y018267D01*
X021738Y018281D01*
X021671Y018299D01*
X021606Y018320D01*
X021542Y018346D01*
X021480Y018375D01*
X021419Y018407D01*
X021361Y018443D01*
X021305Y018483D01*
X021251Y018525D01*
X021200Y018571D01*
X021151Y018620D01*
X021105Y018671D01*
X021063Y018725D01*
X021023Y018781D01*
X020987Y018839D01*
X020955Y018900D01*
X020926Y018962D01*
X020900Y019026D01*
X020879Y019091D01*
X020861Y019158D01*
X020847Y019225D01*
X020837Y019293D01*
X020831Y019361D01*
X020829Y019430D01*
X025329Y019430D02*
X025331Y019499D01*
X025337Y019567D01*
X025347Y019635D01*
X025361Y019702D01*
X025379Y019769D01*
X025400Y019834D01*
X025426Y019898D01*
X025455Y019960D01*
X025487Y020020D01*
X025523Y020079D01*
X025563Y020135D01*
X025605Y020189D01*
X025651Y020240D01*
X025700Y020289D01*
X025751Y020335D01*
X025805Y020377D01*
X025861Y020417D01*
X025919Y020453D01*
X025980Y020485D01*
X026042Y020514D01*
X026106Y020540D01*
X026171Y020561D01*
X026238Y020579D01*
X026305Y020593D01*
X026373Y020603D01*
X026441Y020609D01*
X026510Y020611D01*
X026579Y020609D01*
X026647Y020603D01*
X026715Y020593D01*
X026782Y020579D01*
X026849Y020561D01*
X026914Y020540D01*
X026978Y020514D01*
X027040Y020485D01*
X027100Y020453D01*
X027159Y020417D01*
X027215Y020377D01*
X027269Y020335D01*
X027320Y020289D01*
X027369Y020240D01*
X027415Y020189D01*
X027457Y020135D01*
X027497Y020079D01*
X027533Y020020D01*
X027565Y019960D01*
X027594Y019898D01*
X027620Y019834D01*
X027641Y019769D01*
X027659Y019702D01*
X027673Y019635D01*
X027683Y019567D01*
X027689Y019499D01*
X027691Y019430D01*
X027689Y019361D01*
X027683Y019293D01*
X027673Y019225D01*
X027659Y019158D01*
X027641Y019091D01*
X027620Y019026D01*
X027594Y018962D01*
X027565Y018900D01*
X027533Y018839D01*
X027497Y018781D01*
X027457Y018725D01*
X027415Y018671D01*
X027369Y018620D01*
X027320Y018571D01*
X027269Y018525D01*
X027215Y018483D01*
X027159Y018443D01*
X027101Y018407D01*
X027040Y018375D01*
X026978Y018346D01*
X026914Y018320D01*
X026849Y018299D01*
X026782Y018281D01*
X026715Y018267D01*
X026647Y018257D01*
X026579Y018251D01*
X026510Y018249D01*
X026441Y018251D01*
X026373Y018257D01*
X026305Y018267D01*
X026238Y018281D01*
X026171Y018299D01*
X026106Y018320D01*
X026042Y018346D01*
X025980Y018375D01*
X025919Y018407D01*
X025861Y018443D01*
X025805Y018483D01*
X025751Y018525D01*
X025700Y018571D01*
X025651Y018620D01*
X025605Y018671D01*
X025563Y018725D01*
X025523Y018781D01*
X025487Y018839D01*
X025455Y018900D01*
X025426Y018962D01*
X025400Y019026D01*
X025379Y019091D01*
X025361Y019158D01*
X025347Y019225D01*
X025337Y019293D01*
X025331Y019361D01*
X025329Y019430D01*
X029079Y019430D02*
X029081Y019499D01*
X029087Y019567D01*
X029097Y019635D01*
X029111Y019702D01*
X029129Y019769D01*
X029150Y019834D01*
X029176Y019898D01*
X029205Y019960D01*
X029237Y020020D01*
X029273Y020079D01*
X029313Y020135D01*
X029355Y020189D01*
X029401Y020240D01*
X029450Y020289D01*
X029501Y020335D01*
X029555Y020377D01*
X029611Y020417D01*
X029669Y020453D01*
X029730Y020485D01*
X029792Y020514D01*
X029856Y020540D01*
X029921Y020561D01*
X029988Y020579D01*
X030055Y020593D01*
X030123Y020603D01*
X030191Y020609D01*
X030260Y020611D01*
X030329Y020609D01*
X030397Y020603D01*
X030465Y020593D01*
X030532Y020579D01*
X030599Y020561D01*
X030664Y020540D01*
X030728Y020514D01*
X030790Y020485D01*
X030850Y020453D01*
X030909Y020417D01*
X030965Y020377D01*
X031019Y020335D01*
X031070Y020289D01*
X031119Y020240D01*
X031165Y020189D01*
X031207Y020135D01*
X031247Y020079D01*
X031283Y020020D01*
X031315Y019960D01*
X031344Y019898D01*
X031370Y019834D01*
X031391Y019769D01*
X031409Y019702D01*
X031423Y019635D01*
X031433Y019567D01*
X031439Y019499D01*
X031441Y019430D01*
X031439Y019361D01*
X031433Y019293D01*
X031423Y019225D01*
X031409Y019158D01*
X031391Y019091D01*
X031370Y019026D01*
X031344Y018962D01*
X031315Y018900D01*
X031283Y018839D01*
X031247Y018781D01*
X031207Y018725D01*
X031165Y018671D01*
X031119Y018620D01*
X031070Y018571D01*
X031019Y018525D01*
X030965Y018483D01*
X030909Y018443D01*
X030851Y018407D01*
X030790Y018375D01*
X030728Y018346D01*
X030664Y018320D01*
X030599Y018299D01*
X030532Y018281D01*
X030465Y018267D01*
X030397Y018257D01*
X030329Y018251D01*
X030260Y018249D01*
X030191Y018251D01*
X030123Y018257D01*
X030055Y018267D01*
X029988Y018281D01*
X029921Y018299D01*
X029856Y018320D01*
X029792Y018346D01*
X029730Y018375D01*
X029669Y018407D01*
X029611Y018443D01*
X029555Y018483D01*
X029501Y018525D01*
X029450Y018571D01*
X029401Y018620D01*
X029355Y018671D01*
X029313Y018725D01*
X029273Y018781D01*
X029237Y018839D01*
X029205Y018900D01*
X029176Y018962D01*
X029150Y019026D01*
X029129Y019091D01*
X029111Y019158D01*
X029097Y019225D01*
X029087Y019293D01*
X029081Y019361D01*
X029079Y019430D01*
X032829Y019430D02*
X032831Y019499D01*
X032837Y019567D01*
X032847Y019635D01*
X032861Y019702D01*
X032879Y019769D01*
X032900Y019834D01*
X032926Y019898D01*
X032955Y019960D01*
X032987Y020020D01*
X033023Y020079D01*
X033063Y020135D01*
X033105Y020189D01*
X033151Y020240D01*
X033200Y020289D01*
X033251Y020335D01*
X033305Y020377D01*
X033361Y020417D01*
X033419Y020453D01*
X033480Y020485D01*
X033542Y020514D01*
X033606Y020540D01*
X033671Y020561D01*
X033738Y020579D01*
X033805Y020593D01*
X033873Y020603D01*
X033941Y020609D01*
X034010Y020611D01*
X034079Y020609D01*
X034147Y020603D01*
X034215Y020593D01*
X034282Y020579D01*
X034349Y020561D01*
X034414Y020540D01*
X034478Y020514D01*
X034540Y020485D01*
X034600Y020453D01*
X034659Y020417D01*
X034715Y020377D01*
X034769Y020335D01*
X034820Y020289D01*
X034869Y020240D01*
X034915Y020189D01*
X034957Y020135D01*
X034997Y020079D01*
X035033Y020020D01*
X035065Y019960D01*
X035094Y019898D01*
X035120Y019834D01*
X035141Y019769D01*
X035159Y019702D01*
X035173Y019635D01*
X035183Y019567D01*
X035189Y019499D01*
X035191Y019430D01*
X035189Y019361D01*
X035183Y019293D01*
X035173Y019225D01*
X035159Y019158D01*
X035141Y019091D01*
X035120Y019026D01*
X035094Y018962D01*
X035065Y018900D01*
X035033Y018839D01*
X034997Y018781D01*
X034957Y018725D01*
X034915Y018671D01*
X034869Y018620D01*
X034820Y018571D01*
X034769Y018525D01*
X034715Y018483D01*
X034659Y018443D01*
X034601Y018407D01*
X034540Y018375D01*
X034478Y018346D01*
X034414Y018320D01*
X034349Y018299D01*
X034282Y018281D01*
X034215Y018267D01*
X034147Y018257D01*
X034079Y018251D01*
X034010Y018249D01*
X033941Y018251D01*
X033873Y018257D01*
X033805Y018267D01*
X033738Y018281D01*
X033671Y018299D01*
X033606Y018320D01*
X033542Y018346D01*
X033480Y018375D01*
X033419Y018407D01*
X033361Y018443D01*
X033305Y018483D01*
X033251Y018525D01*
X033200Y018571D01*
X033151Y018620D01*
X033105Y018671D01*
X033063Y018725D01*
X033023Y018781D01*
X032987Y018839D01*
X032955Y018900D01*
X032926Y018962D01*
X032900Y019026D01*
X032879Y019091D01*
X032861Y019158D01*
X032847Y019225D01*
X032837Y019293D01*
X032831Y019361D01*
X032829Y019430D01*
X032829Y024930D02*
X032831Y024999D01*
X032837Y025067D01*
X032847Y025135D01*
X032861Y025202D01*
X032879Y025269D01*
X032900Y025334D01*
X032926Y025398D01*
X032955Y025460D01*
X032987Y025520D01*
X033023Y025579D01*
X033063Y025635D01*
X033105Y025689D01*
X033151Y025740D01*
X033200Y025789D01*
X033251Y025835D01*
X033305Y025877D01*
X033361Y025917D01*
X033419Y025953D01*
X033480Y025985D01*
X033542Y026014D01*
X033606Y026040D01*
X033671Y026061D01*
X033738Y026079D01*
X033805Y026093D01*
X033873Y026103D01*
X033941Y026109D01*
X034010Y026111D01*
X034079Y026109D01*
X034147Y026103D01*
X034215Y026093D01*
X034282Y026079D01*
X034349Y026061D01*
X034414Y026040D01*
X034478Y026014D01*
X034540Y025985D01*
X034600Y025953D01*
X034659Y025917D01*
X034715Y025877D01*
X034769Y025835D01*
X034820Y025789D01*
X034869Y025740D01*
X034915Y025689D01*
X034957Y025635D01*
X034997Y025579D01*
X035033Y025520D01*
X035065Y025460D01*
X035094Y025398D01*
X035120Y025334D01*
X035141Y025269D01*
X035159Y025202D01*
X035173Y025135D01*
X035183Y025067D01*
X035189Y024999D01*
X035191Y024930D01*
X035189Y024861D01*
X035183Y024793D01*
X035173Y024725D01*
X035159Y024658D01*
X035141Y024591D01*
X035120Y024526D01*
X035094Y024462D01*
X035065Y024400D01*
X035033Y024339D01*
X034997Y024281D01*
X034957Y024225D01*
X034915Y024171D01*
X034869Y024120D01*
X034820Y024071D01*
X034769Y024025D01*
X034715Y023983D01*
X034659Y023943D01*
X034601Y023907D01*
X034540Y023875D01*
X034478Y023846D01*
X034414Y023820D01*
X034349Y023799D01*
X034282Y023781D01*
X034215Y023767D01*
X034147Y023757D01*
X034079Y023751D01*
X034010Y023749D01*
X033941Y023751D01*
X033873Y023757D01*
X033805Y023767D01*
X033738Y023781D01*
X033671Y023799D01*
X033606Y023820D01*
X033542Y023846D01*
X033480Y023875D01*
X033419Y023907D01*
X033361Y023943D01*
X033305Y023983D01*
X033251Y024025D01*
X033200Y024071D01*
X033151Y024120D01*
X033105Y024171D01*
X033063Y024225D01*
X033023Y024281D01*
X032987Y024339D01*
X032955Y024400D01*
X032926Y024462D01*
X032900Y024526D01*
X032879Y024591D01*
X032861Y024658D01*
X032847Y024725D01*
X032837Y024793D01*
X032831Y024861D01*
X032829Y024930D01*
X029079Y024930D02*
X029081Y024999D01*
X029087Y025067D01*
X029097Y025135D01*
X029111Y025202D01*
X029129Y025269D01*
X029150Y025334D01*
X029176Y025398D01*
X029205Y025460D01*
X029237Y025520D01*
X029273Y025579D01*
X029313Y025635D01*
X029355Y025689D01*
X029401Y025740D01*
X029450Y025789D01*
X029501Y025835D01*
X029555Y025877D01*
X029611Y025917D01*
X029669Y025953D01*
X029730Y025985D01*
X029792Y026014D01*
X029856Y026040D01*
X029921Y026061D01*
X029988Y026079D01*
X030055Y026093D01*
X030123Y026103D01*
X030191Y026109D01*
X030260Y026111D01*
X030329Y026109D01*
X030397Y026103D01*
X030465Y026093D01*
X030532Y026079D01*
X030599Y026061D01*
X030664Y026040D01*
X030728Y026014D01*
X030790Y025985D01*
X030850Y025953D01*
X030909Y025917D01*
X030965Y025877D01*
X031019Y025835D01*
X031070Y025789D01*
X031119Y025740D01*
X031165Y025689D01*
X031207Y025635D01*
X031247Y025579D01*
X031283Y025520D01*
X031315Y025460D01*
X031344Y025398D01*
X031370Y025334D01*
X031391Y025269D01*
X031409Y025202D01*
X031423Y025135D01*
X031433Y025067D01*
X031439Y024999D01*
X031441Y024930D01*
X031439Y024861D01*
X031433Y024793D01*
X031423Y024725D01*
X031409Y024658D01*
X031391Y024591D01*
X031370Y024526D01*
X031344Y024462D01*
X031315Y024400D01*
X031283Y024339D01*
X031247Y024281D01*
X031207Y024225D01*
X031165Y024171D01*
X031119Y024120D01*
X031070Y024071D01*
X031019Y024025D01*
X030965Y023983D01*
X030909Y023943D01*
X030851Y023907D01*
X030790Y023875D01*
X030728Y023846D01*
X030664Y023820D01*
X030599Y023799D01*
X030532Y023781D01*
X030465Y023767D01*
X030397Y023757D01*
X030329Y023751D01*
X030260Y023749D01*
X030191Y023751D01*
X030123Y023757D01*
X030055Y023767D01*
X029988Y023781D01*
X029921Y023799D01*
X029856Y023820D01*
X029792Y023846D01*
X029730Y023875D01*
X029669Y023907D01*
X029611Y023943D01*
X029555Y023983D01*
X029501Y024025D01*
X029450Y024071D01*
X029401Y024120D01*
X029355Y024171D01*
X029313Y024225D01*
X029273Y024281D01*
X029237Y024339D01*
X029205Y024400D01*
X029176Y024462D01*
X029150Y024526D01*
X029129Y024591D01*
X029111Y024658D01*
X029097Y024725D01*
X029087Y024793D01*
X029081Y024861D01*
X029079Y024930D01*
X025329Y024930D02*
X025331Y024999D01*
X025337Y025067D01*
X025347Y025135D01*
X025361Y025202D01*
X025379Y025269D01*
X025400Y025334D01*
X025426Y025398D01*
X025455Y025460D01*
X025487Y025520D01*
X025523Y025579D01*
X025563Y025635D01*
X025605Y025689D01*
X025651Y025740D01*
X025700Y025789D01*
X025751Y025835D01*
X025805Y025877D01*
X025861Y025917D01*
X025919Y025953D01*
X025980Y025985D01*
X026042Y026014D01*
X026106Y026040D01*
X026171Y026061D01*
X026238Y026079D01*
X026305Y026093D01*
X026373Y026103D01*
X026441Y026109D01*
X026510Y026111D01*
X026579Y026109D01*
X026647Y026103D01*
X026715Y026093D01*
X026782Y026079D01*
X026849Y026061D01*
X026914Y026040D01*
X026978Y026014D01*
X027040Y025985D01*
X027100Y025953D01*
X027159Y025917D01*
X027215Y025877D01*
X027269Y025835D01*
X027320Y025789D01*
X027369Y025740D01*
X027415Y025689D01*
X027457Y025635D01*
X027497Y025579D01*
X027533Y025520D01*
X027565Y025460D01*
X027594Y025398D01*
X027620Y025334D01*
X027641Y025269D01*
X027659Y025202D01*
X027673Y025135D01*
X027683Y025067D01*
X027689Y024999D01*
X027691Y024930D01*
X027689Y024861D01*
X027683Y024793D01*
X027673Y024725D01*
X027659Y024658D01*
X027641Y024591D01*
X027620Y024526D01*
X027594Y024462D01*
X027565Y024400D01*
X027533Y024339D01*
X027497Y024281D01*
X027457Y024225D01*
X027415Y024171D01*
X027369Y024120D01*
X027320Y024071D01*
X027269Y024025D01*
X027215Y023983D01*
X027159Y023943D01*
X027101Y023907D01*
X027040Y023875D01*
X026978Y023846D01*
X026914Y023820D01*
X026849Y023799D01*
X026782Y023781D01*
X026715Y023767D01*
X026647Y023757D01*
X026579Y023751D01*
X026510Y023749D01*
X026441Y023751D01*
X026373Y023757D01*
X026305Y023767D01*
X026238Y023781D01*
X026171Y023799D01*
X026106Y023820D01*
X026042Y023846D01*
X025980Y023875D01*
X025919Y023907D01*
X025861Y023943D01*
X025805Y023983D01*
X025751Y024025D01*
X025700Y024071D01*
X025651Y024120D01*
X025605Y024171D01*
X025563Y024225D01*
X025523Y024281D01*
X025487Y024339D01*
X025455Y024400D01*
X025426Y024462D01*
X025400Y024526D01*
X025379Y024591D01*
X025361Y024658D01*
X025347Y024725D01*
X025337Y024793D01*
X025331Y024861D01*
X025329Y024930D01*
X020829Y024930D02*
X020831Y024999D01*
X020837Y025067D01*
X020847Y025135D01*
X020861Y025202D01*
X020879Y025269D01*
X020900Y025334D01*
X020926Y025398D01*
X020955Y025460D01*
X020987Y025520D01*
X021023Y025579D01*
X021063Y025635D01*
X021105Y025689D01*
X021151Y025740D01*
X021200Y025789D01*
X021251Y025835D01*
X021305Y025877D01*
X021361Y025917D01*
X021419Y025953D01*
X021480Y025985D01*
X021542Y026014D01*
X021606Y026040D01*
X021671Y026061D01*
X021738Y026079D01*
X021805Y026093D01*
X021873Y026103D01*
X021941Y026109D01*
X022010Y026111D01*
X022079Y026109D01*
X022147Y026103D01*
X022215Y026093D01*
X022282Y026079D01*
X022349Y026061D01*
X022414Y026040D01*
X022478Y026014D01*
X022540Y025985D01*
X022600Y025953D01*
X022659Y025917D01*
X022715Y025877D01*
X022769Y025835D01*
X022820Y025789D01*
X022869Y025740D01*
X022915Y025689D01*
X022957Y025635D01*
X022997Y025579D01*
X023033Y025520D01*
X023065Y025460D01*
X023094Y025398D01*
X023120Y025334D01*
X023141Y025269D01*
X023159Y025202D01*
X023173Y025135D01*
X023183Y025067D01*
X023189Y024999D01*
X023191Y024930D01*
X023189Y024861D01*
X023183Y024793D01*
X023173Y024725D01*
X023159Y024658D01*
X023141Y024591D01*
X023120Y024526D01*
X023094Y024462D01*
X023065Y024400D01*
X023033Y024339D01*
X022997Y024281D01*
X022957Y024225D01*
X022915Y024171D01*
X022869Y024120D01*
X022820Y024071D01*
X022769Y024025D01*
X022715Y023983D01*
X022659Y023943D01*
X022601Y023907D01*
X022540Y023875D01*
X022478Y023846D01*
X022414Y023820D01*
X022349Y023799D01*
X022282Y023781D01*
X022215Y023767D01*
X022147Y023757D01*
X022079Y023751D01*
X022010Y023749D01*
X021941Y023751D01*
X021873Y023757D01*
X021805Y023767D01*
X021738Y023781D01*
X021671Y023799D01*
X021606Y023820D01*
X021542Y023846D01*
X021480Y023875D01*
X021419Y023907D01*
X021361Y023943D01*
X021305Y023983D01*
X021251Y024025D01*
X021200Y024071D01*
X021151Y024120D01*
X021105Y024171D01*
X021063Y024225D01*
X021023Y024281D01*
X020987Y024339D01*
X020955Y024400D01*
X020926Y024462D01*
X020900Y024526D01*
X020879Y024591D01*
X020861Y024658D01*
X020847Y024725D01*
X020837Y024793D01*
X020831Y024861D01*
X020829Y024930D01*
X017079Y024930D02*
X017081Y024999D01*
X017087Y025067D01*
X017097Y025135D01*
X017111Y025202D01*
X017129Y025269D01*
X017150Y025334D01*
X017176Y025398D01*
X017205Y025460D01*
X017237Y025520D01*
X017273Y025579D01*
X017313Y025635D01*
X017355Y025689D01*
X017401Y025740D01*
X017450Y025789D01*
X017501Y025835D01*
X017555Y025877D01*
X017611Y025917D01*
X017669Y025953D01*
X017730Y025985D01*
X017792Y026014D01*
X017856Y026040D01*
X017921Y026061D01*
X017988Y026079D01*
X018055Y026093D01*
X018123Y026103D01*
X018191Y026109D01*
X018260Y026111D01*
X018329Y026109D01*
X018397Y026103D01*
X018465Y026093D01*
X018532Y026079D01*
X018599Y026061D01*
X018664Y026040D01*
X018728Y026014D01*
X018790Y025985D01*
X018850Y025953D01*
X018909Y025917D01*
X018965Y025877D01*
X019019Y025835D01*
X019070Y025789D01*
X019119Y025740D01*
X019165Y025689D01*
X019207Y025635D01*
X019247Y025579D01*
X019283Y025520D01*
X019315Y025460D01*
X019344Y025398D01*
X019370Y025334D01*
X019391Y025269D01*
X019409Y025202D01*
X019423Y025135D01*
X019433Y025067D01*
X019439Y024999D01*
X019441Y024930D01*
X019439Y024861D01*
X019433Y024793D01*
X019423Y024725D01*
X019409Y024658D01*
X019391Y024591D01*
X019370Y024526D01*
X019344Y024462D01*
X019315Y024400D01*
X019283Y024339D01*
X019247Y024281D01*
X019207Y024225D01*
X019165Y024171D01*
X019119Y024120D01*
X019070Y024071D01*
X019019Y024025D01*
X018965Y023983D01*
X018909Y023943D01*
X018851Y023907D01*
X018790Y023875D01*
X018728Y023846D01*
X018664Y023820D01*
X018599Y023799D01*
X018532Y023781D01*
X018465Y023767D01*
X018397Y023757D01*
X018329Y023751D01*
X018260Y023749D01*
X018191Y023751D01*
X018123Y023757D01*
X018055Y023767D01*
X017988Y023781D01*
X017921Y023799D01*
X017856Y023820D01*
X017792Y023846D01*
X017730Y023875D01*
X017669Y023907D01*
X017611Y023943D01*
X017555Y023983D01*
X017501Y024025D01*
X017450Y024071D01*
X017401Y024120D01*
X017355Y024171D01*
X017313Y024225D01*
X017273Y024281D01*
X017237Y024339D01*
X017205Y024400D01*
X017176Y024462D01*
X017150Y024526D01*
X017129Y024591D01*
X017111Y024658D01*
X017097Y024725D01*
X017087Y024793D01*
X017081Y024861D01*
X017079Y024930D01*
X013329Y024930D02*
X013331Y024999D01*
X013337Y025067D01*
X013347Y025135D01*
X013361Y025202D01*
X013379Y025269D01*
X013400Y025334D01*
X013426Y025398D01*
X013455Y025460D01*
X013487Y025520D01*
X013523Y025579D01*
X013563Y025635D01*
X013605Y025689D01*
X013651Y025740D01*
X013700Y025789D01*
X013751Y025835D01*
X013805Y025877D01*
X013861Y025917D01*
X013919Y025953D01*
X013980Y025985D01*
X014042Y026014D01*
X014106Y026040D01*
X014171Y026061D01*
X014238Y026079D01*
X014305Y026093D01*
X014373Y026103D01*
X014441Y026109D01*
X014510Y026111D01*
X014579Y026109D01*
X014647Y026103D01*
X014715Y026093D01*
X014782Y026079D01*
X014849Y026061D01*
X014914Y026040D01*
X014978Y026014D01*
X015040Y025985D01*
X015100Y025953D01*
X015159Y025917D01*
X015215Y025877D01*
X015269Y025835D01*
X015320Y025789D01*
X015369Y025740D01*
X015415Y025689D01*
X015457Y025635D01*
X015497Y025579D01*
X015533Y025520D01*
X015565Y025460D01*
X015594Y025398D01*
X015620Y025334D01*
X015641Y025269D01*
X015659Y025202D01*
X015673Y025135D01*
X015683Y025067D01*
X015689Y024999D01*
X015691Y024930D01*
X015689Y024861D01*
X015683Y024793D01*
X015673Y024725D01*
X015659Y024658D01*
X015641Y024591D01*
X015620Y024526D01*
X015594Y024462D01*
X015565Y024400D01*
X015533Y024339D01*
X015497Y024281D01*
X015457Y024225D01*
X015415Y024171D01*
X015369Y024120D01*
X015320Y024071D01*
X015269Y024025D01*
X015215Y023983D01*
X015159Y023943D01*
X015101Y023907D01*
X015040Y023875D01*
X014978Y023846D01*
X014914Y023820D01*
X014849Y023799D01*
X014782Y023781D01*
X014715Y023767D01*
X014647Y023757D01*
X014579Y023751D01*
X014510Y023749D01*
X014441Y023751D01*
X014373Y023757D01*
X014305Y023767D01*
X014238Y023781D01*
X014171Y023799D01*
X014106Y023820D01*
X014042Y023846D01*
X013980Y023875D01*
X013919Y023907D01*
X013861Y023943D01*
X013805Y023983D01*
X013751Y024025D01*
X013700Y024071D01*
X013651Y024120D01*
X013605Y024171D01*
X013563Y024225D01*
X013523Y024281D01*
X013487Y024339D01*
X013455Y024400D01*
X013426Y024462D01*
X013400Y024526D01*
X013379Y024591D01*
X013361Y024658D01*
X013347Y024725D01*
X013337Y024793D01*
X013331Y024861D01*
X013329Y024930D01*
X008829Y024930D02*
X008831Y024999D01*
X008837Y025067D01*
X008847Y025135D01*
X008861Y025202D01*
X008879Y025269D01*
X008900Y025334D01*
X008926Y025398D01*
X008955Y025460D01*
X008987Y025520D01*
X009023Y025579D01*
X009063Y025635D01*
X009105Y025689D01*
X009151Y025740D01*
X009200Y025789D01*
X009251Y025835D01*
X009305Y025877D01*
X009361Y025917D01*
X009419Y025953D01*
X009480Y025985D01*
X009542Y026014D01*
X009606Y026040D01*
X009671Y026061D01*
X009738Y026079D01*
X009805Y026093D01*
X009873Y026103D01*
X009941Y026109D01*
X010010Y026111D01*
X010079Y026109D01*
X010147Y026103D01*
X010215Y026093D01*
X010282Y026079D01*
X010349Y026061D01*
X010414Y026040D01*
X010478Y026014D01*
X010540Y025985D01*
X010600Y025953D01*
X010659Y025917D01*
X010715Y025877D01*
X010769Y025835D01*
X010820Y025789D01*
X010869Y025740D01*
X010915Y025689D01*
X010957Y025635D01*
X010997Y025579D01*
X011033Y025520D01*
X011065Y025460D01*
X011094Y025398D01*
X011120Y025334D01*
X011141Y025269D01*
X011159Y025202D01*
X011173Y025135D01*
X011183Y025067D01*
X011189Y024999D01*
X011191Y024930D01*
X011189Y024861D01*
X011183Y024793D01*
X011173Y024725D01*
X011159Y024658D01*
X011141Y024591D01*
X011120Y024526D01*
X011094Y024462D01*
X011065Y024400D01*
X011033Y024339D01*
X010997Y024281D01*
X010957Y024225D01*
X010915Y024171D01*
X010869Y024120D01*
X010820Y024071D01*
X010769Y024025D01*
X010715Y023983D01*
X010659Y023943D01*
X010601Y023907D01*
X010540Y023875D01*
X010478Y023846D01*
X010414Y023820D01*
X010349Y023799D01*
X010282Y023781D01*
X010215Y023767D01*
X010147Y023757D01*
X010079Y023751D01*
X010010Y023749D01*
X009941Y023751D01*
X009873Y023757D01*
X009805Y023767D01*
X009738Y023781D01*
X009671Y023799D01*
X009606Y023820D01*
X009542Y023846D01*
X009480Y023875D01*
X009419Y023907D01*
X009361Y023943D01*
X009305Y023983D01*
X009251Y024025D01*
X009200Y024071D01*
X009151Y024120D01*
X009105Y024171D01*
X009063Y024225D01*
X009023Y024281D01*
X008987Y024339D01*
X008955Y024400D01*
X008926Y024462D01*
X008900Y024526D01*
X008879Y024591D01*
X008861Y024658D01*
X008847Y024725D01*
X008837Y024793D01*
X008831Y024861D01*
X008829Y024930D01*
X005079Y024930D02*
X005081Y024999D01*
X005087Y025067D01*
X005097Y025135D01*
X005111Y025202D01*
X005129Y025269D01*
X005150Y025334D01*
X005176Y025398D01*
X005205Y025460D01*
X005237Y025520D01*
X005273Y025579D01*
X005313Y025635D01*
X005355Y025689D01*
X005401Y025740D01*
X005450Y025789D01*
X005501Y025835D01*
X005555Y025877D01*
X005611Y025917D01*
X005669Y025953D01*
X005730Y025985D01*
X005792Y026014D01*
X005856Y026040D01*
X005921Y026061D01*
X005988Y026079D01*
X006055Y026093D01*
X006123Y026103D01*
X006191Y026109D01*
X006260Y026111D01*
X006329Y026109D01*
X006397Y026103D01*
X006465Y026093D01*
X006532Y026079D01*
X006599Y026061D01*
X006664Y026040D01*
X006728Y026014D01*
X006790Y025985D01*
X006850Y025953D01*
X006909Y025917D01*
X006965Y025877D01*
X007019Y025835D01*
X007070Y025789D01*
X007119Y025740D01*
X007165Y025689D01*
X007207Y025635D01*
X007247Y025579D01*
X007283Y025520D01*
X007315Y025460D01*
X007344Y025398D01*
X007370Y025334D01*
X007391Y025269D01*
X007409Y025202D01*
X007423Y025135D01*
X007433Y025067D01*
X007439Y024999D01*
X007441Y024930D01*
X007439Y024861D01*
X007433Y024793D01*
X007423Y024725D01*
X007409Y024658D01*
X007391Y024591D01*
X007370Y024526D01*
X007344Y024462D01*
X007315Y024400D01*
X007283Y024339D01*
X007247Y024281D01*
X007207Y024225D01*
X007165Y024171D01*
X007119Y024120D01*
X007070Y024071D01*
X007019Y024025D01*
X006965Y023983D01*
X006909Y023943D01*
X006851Y023907D01*
X006790Y023875D01*
X006728Y023846D01*
X006664Y023820D01*
X006599Y023799D01*
X006532Y023781D01*
X006465Y023767D01*
X006397Y023757D01*
X006329Y023751D01*
X006260Y023749D01*
X006191Y023751D01*
X006123Y023757D01*
X006055Y023767D01*
X005988Y023781D01*
X005921Y023799D01*
X005856Y023820D01*
X005792Y023846D01*
X005730Y023875D01*
X005669Y023907D01*
X005611Y023943D01*
X005555Y023983D01*
X005501Y024025D01*
X005450Y024071D01*
X005401Y024120D01*
X005355Y024171D01*
X005313Y024225D01*
X005273Y024281D01*
X005237Y024339D01*
X005205Y024400D01*
X005176Y024462D01*
X005150Y024526D01*
X005129Y024591D01*
X005111Y024658D01*
X005097Y024725D01*
X005087Y024793D01*
X005081Y024861D01*
X005079Y024930D01*
X001329Y024930D02*
X001331Y024999D01*
X001337Y025067D01*
X001347Y025135D01*
X001361Y025202D01*
X001379Y025269D01*
X001400Y025334D01*
X001426Y025398D01*
X001455Y025460D01*
X001487Y025520D01*
X001523Y025579D01*
X001563Y025635D01*
X001605Y025689D01*
X001651Y025740D01*
X001700Y025789D01*
X001751Y025835D01*
X001805Y025877D01*
X001861Y025917D01*
X001919Y025953D01*
X001980Y025985D01*
X002042Y026014D01*
X002106Y026040D01*
X002171Y026061D01*
X002238Y026079D01*
X002305Y026093D01*
X002373Y026103D01*
X002441Y026109D01*
X002510Y026111D01*
X002579Y026109D01*
X002647Y026103D01*
X002715Y026093D01*
X002782Y026079D01*
X002849Y026061D01*
X002914Y026040D01*
X002978Y026014D01*
X003040Y025985D01*
X003100Y025953D01*
X003159Y025917D01*
X003215Y025877D01*
X003269Y025835D01*
X003320Y025789D01*
X003369Y025740D01*
X003415Y025689D01*
X003457Y025635D01*
X003497Y025579D01*
X003533Y025520D01*
X003565Y025460D01*
X003594Y025398D01*
X003620Y025334D01*
X003641Y025269D01*
X003659Y025202D01*
X003673Y025135D01*
X003683Y025067D01*
X003689Y024999D01*
X003691Y024930D01*
X003689Y024861D01*
X003683Y024793D01*
X003673Y024725D01*
X003659Y024658D01*
X003641Y024591D01*
X003620Y024526D01*
X003594Y024462D01*
X003565Y024400D01*
X003533Y024339D01*
X003497Y024281D01*
X003457Y024225D01*
X003415Y024171D01*
X003369Y024120D01*
X003320Y024071D01*
X003269Y024025D01*
X003215Y023983D01*
X003159Y023943D01*
X003101Y023907D01*
X003040Y023875D01*
X002978Y023846D01*
X002914Y023820D01*
X002849Y023799D01*
X002782Y023781D01*
X002715Y023767D01*
X002647Y023757D01*
X002579Y023751D01*
X002510Y023749D01*
X002441Y023751D01*
X002373Y023757D01*
X002305Y023767D01*
X002238Y023781D01*
X002171Y023799D01*
X002106Y023820D01*
X002042Y023846D01*
X001980Y023875D01*
X001919Y023907D01*
X001861Y023943D01*
X001805Y023983D01*
X001751Y024025D01*
X001700Y024071D01*
X001651Y024120D01*
X001605Y024171D01*
X001563Y024225D01*
X001523Y024281D01*
X001487Y024339D01*
X001455Y024400D01*
X001426Y024462D01*
X001400Y024526D01*
X001379Y024591D01*
X001361Y024658D01*
X001347Y024725D01*
X001337Y024793D01*
X001331Y024861D01*
X001329Y024930D01*
X009635Y029250D02*
X009637Y029300D01*
X009643Y029349D01*
X009653Y029398D01*
X009666Y029445D01*
X009684Y029492D01*
X009705Y029537D01*
X009729Y029580D01*
X009757Y029621D01*
X009788Y029660D01*
X009822Y029696D01*
X009859Y029730D01*
X009899Y029760D01*
X009940Y029787D01*
X009984Y029811D01*
X010029Y029831D01*
X010076Y029847D01*
X010124Y029860D01*
X010173Y029869D01*
X010223Y029874D01*
X010272Y029875D01*
X010322Y029872D01*
X010371Y029865D01*
X010420Y029854D01*
X010467Y029840D01*
X010513Y029821D01*
X010558Y029799D01*
X010601Y029774D01*
X010641Y029745D01*
X010679Y029713D01*
X010715Y029679D01*
X010748Y029641D01*
X010777Y029601D01*
X010803Y029559D01*
X010826Y029515D01*
X010845Y029469D01*
X010861Y029422D01*
X010873Y029373D01*
X010881Y029324D01*
X010885Y029275D01*
X010885Y029225D01*
X010881Y029176D01*
X010873Y029127D01*
X010861Y029078D01*
X010845Y029031D01*
X010826Y028985D01*
X010803Y028941D01*
X010777Y028899D01*
X010748Y028859D01*
X010715Y028821D01*
X010679Y028787D01*
X010641Y028755D01*
X010601Y028726D01*
X010558Y028701D01*
X010513Y028679D01*
X010467Y028660D01*
X010420Y028646D01*
X010371Y028635D01*
X010322Y028628D01*
X010272Y028625D01*
X010223Y028626D01*
X010173Y028631D01*
X010124Y028640D01*
X010076Y028653D01*
X010029Y028669D01*
X009984Y028689D01*
X009940Y028713D01*
X009899Y028740D01*
X009859Y028770D01*
X009822Y028804D01*
X009788Y028840D01*
X009757Y028879D01*
X009729Y028920D01*
X009705Y028963D01*
X009684Y029008D01*
X009666Y029055D01*
X009653Y029102D01*
X009643Y029151D01*
X009637Y029200D01*
X009635Y029250D01*
X021635Y029250D02*
X021637Y029300D01*
X021643Y029349D01*
X021653Y029398D01*
X021666Y029445D01*
X021684Y029492D01*
X021705Y029537D01*
X021729Y029580D01*
X021757Y029621D01*
X021788Y029660D01*
X021822Y029696D01*
X021859Y029730D01*
X021899Y029760D01*
X021940Y029787D01*
X021984Y029811D01*
X022029Y029831D01*
X022076Y029847D01*
X022124Y029860D01*
X022173Y029869D01*
X022223Y029874D01*
X022272Y029875D01*
X022322Y029872D01*
X022371Y029865D01*
X022420Y029854D01*
X022467Y029840D01*
X022513Y029821D01*
X022558Y029799D01*
X022601Y029774D01*
X022641Y029745D01*
X022679Y029713D01*
X022715Y029679D01*
X022748Y029641D01*
X022777Y029601D01*
X022803Y029559D01*
X022826Y029515D01*
X022845Y029469D01*
X022861Y029422D01*
X022873Y029373D01*
X022881Y029324D01*
X022885Y029275D01*
X022885Y029225D01*
X022881Y029176D01*
X022873Y029127D01*
X022861Y029078D01*
X022845Y029031D01*
X022826Y028985D01*
X022803Y028941D01*
X022777Y028899D01*
X022748Y028859D01*
X022715Y028821D01*
X022679Y028787D01*
X022641Y028755D01*
X022601Y028726D01*
X022558Y028701D01*
X022513Y028679D01*
X022467Y028660D01*
X022420Y028646D01*
X022371Y028635D01*
X022322Y028628D01*
X022272Y028625D01*
X022223Y028626D01*
X022173Y028631D01*
X022124Y028640D01*
X022076Y028653D01*
X022029Y028669D01*
X021984Y028689D01*
X021940Y028713D01*
X021899Y028740D01*
X021859Y028770D01*
X021822Y028804D01*
X021788Y028840D01*
X021757Y028879D01*
X021729Y028920D01*
X021705Y028963D01*
X021684Y029008D01*
X021666Y029055D01*
X021653Y029102D01*
X021643Y029151D01*
X021637Y029200D01*
X021635Y029250D01*
X033635Y029250D02*
X033637Y029300D01*
X033643Y029349D01*
X033653Y029398D01*
X033666Y029445D01*
X033684Y029492D01*
X033705Y029537D01*
X033729Y029580D01*
X033757Y029621D01*
X033788Y029660D01*
X033822Y029696D01*
X033859Y029730D01*
X033899Y029760D01*
X033940Y029787D01*
X033984Y029811D01*
X034029Y029831D01*
X034076Y029847D01*
X034124Y029860D01*
X034173Y029869D01*
X034223Y029874D01*
X034272Y029875D01*
X034322Y029872D01*
X034371Y029865D01*
X034420Y029854D01*
X034467Y029840D01*
X034513Y029821D01*
X034558Y029799D01*
X034601Y029774D01*
X034641Y029745D01*
X034679Y029713D01*
X034715Y029679D01*
X034748Y029641D01*
X034777Y029601D01*
X034803Y029559D01*
X034826Y029515D01*
X034845Y029469D01*
X034861Y029422D01*
X034873Y029373D01*
X034881Y029324D01*
X034885Y029275D01*
X034885Y029225D01*
X034881Y029176D01*
X034873Y029127D01*
X034861Y029078D01*
X034845Y029031D01*
X034826Y028985D01*
X034803Y028941D01*
X034777Y028899D01*
X034748Y028859D01*
X034715Y028821D01*
X034679Y028787D01*
X034641Y028755D01*
X034601Y028726D01*
X034558Y028701D01*
X034513Y028679D01*
X034467Y028660D01*
X034420Y028646D01*
X034371Y028635D01*
X034322Y028628D01*
X034272Y028625D01*
X034223Y028626D01*
X034173Y028631D01*
X034124Y028640D01*
X034076Y028653D01*
X034029Y028669D01*
X033984Y028689D01*
X033940Y028713D01*
X033899Y028740D01*
X033859Y028770D01*
X033822Y028804D01*
X033788Y028840D01*
X033757Y028879D01*
X033729Y028920D01*
X033705Y028963D01*
X033684Y029008D01*
X033666Y029055D01*
X033653Y029102D01*
X033643Y029151D01*
X033637Y029200D01*
X033635Y029250D01*
X025635Y014610D02*
X025637Y014660D01*
X025643Y014709D01*
X025653Y014758D01*
X025666Y014805D01*
X025684Y014852D01*
X025705Y014897D01*
X025729Y014940D01*
X025757Y014981D01*
X025788Y015020D01*
X025822Y015056D01*
X025859Y015090D01*
X025899Y015120D01*
X025940Y015147D01*
X025984Y015171D01*
X026029Y015191D01*
X026076Y015207D01*
X026124Y015220D01*
X026173Y015229D01*
X026223Y015234D01*
X026272Y015235D01*
X026322Y015232D01*
X026371Y015225D01*
X026420Y015214D01*
X026467Y015200D01*
X026513Y015181D01*
X026558Y015159D01*
X026601Y015134D01*
X026641Y015105D01*
X026679Y015073D01*
X026715Y015039D01*
X026748Y015001D01*
X026777Y014961D01*
X026803Y014919D01*
X026826Y014875D01*
X026845Y014829D01*
X026861Y014782D01*
X026873Y014733D01*
X026881Y014684D01*
X026885Y014635D01*
X026885Y014585D01*
X026881Y014536D01*
X026873Y014487D01*
X026861Y014438D01*
X026845Y014391D01*
X026826Y014345D01*
X026803Y014301D01*
X026777Y014259D01*
X026748Y014219D01*
X026715Y014181D01*
X026679Y014147D01*
X026641Y014115D01*
X026601Y014086D01*
X026558Y014061D01*
X026513Y014039D01*
X026467Y014020D01*
X026420Y014006D01*
X026371Y013995D01*
X026322Y013988D01*
X026272Y013985D01*
X026223Y013986D01*
X026173Y013991D01*
X026124Y014000D01*
X026076Y014013D01*
X026029Y014029D01*
X025984Y014049D01*
X025940Y014073D01*
X025899Y014100D01*
X025859Y014130D01*
X025822Y014164D01*
X025788Y014200D01*
X025757Y014239D01*
X025729Y014280D01*
X025705Y014323D01*
X025684Y014368D01*
X025666Y014415D01*
X025653Y014462D01*
X025643Y014511D01*
X025637Y014560D01*
X025635Y014610D01*
X013635Y014610D02*
X013637Y014660D01*
X013643Y014709D01*
X013653Y014758D01*
X013666Y014805D01*
X013684Y014852D01*
X013705Y014897D01*
X013729Y014940D01*
X013757Y014981D01*
X013788Y015020D01*
X013822Y015056D01*
X013859Y015090D01*
X013899Y015120D01*
X013940Y015147D01*
X013984Y015171D01*
X014029Y015191D01*
X014076Y015207D01*
X014124Y015220D01*
X014173Y015229D01*
X014223Y015234D01*
X014272Y015235D01*
X014322Y015232D01*
X014371Y015225D01*
X014420Y015214D01*
X014467Y015200D01*
X014513Y015181D01*
X014558Y015159D01*
X014601Y015134D01*
X014641Y015105D01*
X014679Y015073D01*
X014715Y015039D01*
X014748Y015001D01*
X014777Y014961D01*
X014803Y014919D01*
X014826Y014875D01*
X014845Y014829D01*
X014861Y014782D01*
X014873Y014733D01*
X014881Y014684D01*
X014885Y014635D01*
X014885Y014585D01*
X014881Y014536D01*
X014873Y014487D01*
X014861Y014438D01*
X014845Y014391D01*
X014826Y014345D01*
X014803Y014301D01*
X014777Y014259D01*
X014748Y014219D01*
X014715Y014181D01*
X014679Y014147D01*
X014641Y014115D01*
X014601Y014086D01*
X014558Y014061D01*
X014513Y014039D01*
X014467Y014020D01*
X014420Y014006D01*
X014371Y013995D01*
X014322Y013988D01*
X014272Y013985D01*
X014223Y013986D01*
X014173Y013991D01*
X014124Y014000D01*
X014076Y014013D01*
X014029Y014029D01*
X013984Y014049D01*
X013940Y014073D01*
X013899Y014100D01*
X013859Y014130D01*
X013822Y014164D01*
X013788Y014200D01*
X013757Y014239D01*
X013729Y014280D01*
X013705Y014323D01*
X013684Y014368D01*
X013666Y014415D01*
X013653Y014462D01*
X013643Y014511D01*
X013637Y014560D01*
X013635Y014610D01*
D11*
X000260Y000180D02*
X036260Y000180D01*
X036260Y032430D01*
X000260Y032430D01*
X000260Y000180D01*
M02*
