%
M48
M72
T01C0.1250
T02C0.2362
%
T01
X2260Y14610
X14260Y14610
X26260Y14610
X22260Y29250
X10260Y29250
X34260Y29250
T02
X34010Y24930
X30260Y24930
X26510Y24930
X22010Y24930
X18260Y24930
X14510Y24930
X10010Y24930
X6260Y24930
X2510Y24930
X2510Y19430
X6260Y19430
X10010Y19430
X14510Y19430
X18260Y19430
X22010Y19430
X26510Y19430
X30260Y19430
X34010Y19430
M30
