%
M48
M72
T01C0.0433
%
T01
X2510Y2871
X2510Y4052
X2510Y7399
X2510Y8371
X2510Y9552
X2510Y12899
X6260Y12899
X6260Y9552
X6260Y8371
X6260Y7399
X6260Y4052
X6260Y2871
X10010Y2871
X10010Y4052
X10010Y7399
X10010Y8371
X10010Y9552
X10010Y12899
X14510Y12899
X14510Y9552
X14510Y8371
X14510Y7399
X14510Y4052
X14510Y2871
X18260Y2871
X18260Y4052
X18260Y7399
X18260Y8371
X18260Y9552
X18260Y12899
X22010Y12899
X22010Y9552
X22010Y8371
X22010Y7399
X22010Y4052
X22010Y2871
X26510Y2871
X26510Y4052
X26510Y7399
X26510Y8371
X26510Y9552
X26510Y12899
X30260Y12899
X30260Y9552
X30260Y8371
X30260Y7399
X30260Y4052
X30260Y2871
X34010Y2871
X34010Y4052
X34010Y7399
X34010Y8371
X34010Y9552
X34010Y12899
M30
